<svg xmlns="http://www.w3.org/2000/svg" width="185" height="45" fill="none" viewBox="0 0 185 45">
  <path fill="#fff" d="M56.283 21.147c-1.235-.217-2.293-.505-3.174-.902-.846-.361-1.552-.794-2.046-1.264-.493-.469-.916-.974-1.199-1.48a5.304 5.304 0 0 1-.564-1.515c-.07-.505-.14-.974-.14-1.371v-.253h7.97c0 .253.07.542.175.867.106.324.318.613.67.902.318.252.811.505 1.411.685.6.18 1.446.289 2.469.289h.246c1.023 0 1.834-.036 2.434-.144a6.967 6.967 0 0 0 1.41-.397c.318-.18.565-.361.635-.578.106-.216.141-.433.141-.685v-.036c0-.253-.035-.47-.14-.65-.107-.216-.283-.397-.6-.541a4.434 4.434 0 0 0-1.34-.361c-.6-.072-1.376-.144-2.399-.18l-3.526-.109c-1.834-.036-3.35-.252-4.55-.577-1.198-.325-2.15-.758-2.856-1.3-.705-.505-1.199-1.118-1.48-1.804a5.635 5.635 0 0 1-.424-2.165v-.252c0-.794.141-1.552.459-2.274.317-.722.881-1.371 1.692-1.913.811-.54 1.94-.974 3.35-1.299 1.411-.324 3.245-.469 5.431-.469h2.257c2.363 0 4.267.18 5.784.505 1.48.361 2.68.794 3.526 1.372.846.577 1.446 1.227 1.763 1.984.318.758.494 1.48.494 2.274v.216h-7.9c0-.18-.07-.396-.176-.613-.105-.253-.282-.47-.6-.686-.317-.216-.775-.397-1.374-.541-.6-.144-1.411-.216-2.434-.216h-.247c-.952 0-1.692.036-2.257.108-.564.072-.987.18-1.27.325-.281.144-.458.288-.563.469-.07.18-.106.36-.106.541v.036c0 .18.035.36.14.541.107.18.283.325.6.47.282.144.706.252 1.235.324a16 16 0 0 0 2.15.145l3.422.072c1.798.036 3.35.216 4.62.433 1.269.252 2.291.613 3.103 1.082.81.47 1.41 1.083 1.763 1.805s.564 1.552.564 2.526v.36c0 .83-.141 1.625-.423 2.418-.282.794-.847 1.516-1.728 2.13-.846.613-2.046 1.118-3.562 1.515-1.516.397-3.562.578-6.065.578h-2.328c-1.693-.073-3.209-.18-4.443-.397ZM83.542 6.965h-8.216V1.66h23.663v5.305h-8.217V21.11h-7.265V6.965h.035ZM114.611 1.3c2.045 0 3.808.143 5.29.468 1.481.289 2.75.722 3.738 1.227a9 9 0 0 1 2.468 1.768c.635.65 1.129 1.336 1.446 2.057a8.86 8.86 0 0 1 .705 2.13c.106.721.177 1.37.177 1.984v.794c0 .614-.071 1.263-.177 1.985-.105.722-.352 1.443-.705 2.165s-.846 1.407-1.446 2.093c-.635.686-1.446 1.263-2.468 1.804-1.023.506-2.293.939-3.774 1.263-1.481.325-3.244.47-5.289.47h-1.164c-2.045 0-3.809-.145-5.29-.47-1.481-.324-2.751-.721-3.773-1.263-1.023-.505-1.834-1.118-2.469-1.804-.635-.686-1.128-1.371-1.446-2.093a8.65 8.65 0 0 1-.705-2.165c-.106-.722-.176-1.371-.176-1.985v-.794c0-.613.07-1.263.176-1.985a6.886 6.886 0 0 1 .705-2.129c.353-.721.847-1.407 1.481-2.057a8.991 8.991 0 0 1 2.469-1.768c1.023-.505 2.257-.938 3.738-1.227 1.481-.288 3.245-.469 5.325-.469h1.164Zm6.348 9.815c0-.542-.106-1.047-.283-1.588a3.82 3.82 0 0 0-1.057-1.48c-.494-.433-1.2-.83-2.116-1.118-.882-.29-2.046-.433-3.456-.433-1.446 0-2.61.144-3.492.433-.916.288-1.622.65-2.115 1.118-.494.433-.847.939-1.023 1.48-.176.541-.282 1.082-.282 1.588v.324c0 .506.106 1.047.282 1.624.211.578.564 1.083 1.058 1.552.493.47 1.199.866 2.116 1.155.881.325 2.045.469 3.456.469 1.41 0 2.539-.144 3.456-.433.916-.289 1.622-.686 2.116-1.155.493-.469.881-.974 1.057-1.552a4.636 4.636 0 0 0 .283-1.623v-.361Zm22.111 10.356c-1.94 0-3.633-.144-5.043-.469-1.411-.324-2.645-.721-3.632-1.227-.988-.505-1.799-1.118-2.434-1.804a8.607 8.607 0 0 1-1.446-2.093c-.352-.722-.599-1.443-.705-2.165-.106-.722-.176-1.407-.176-1.985v-.758c0-.613.07-1.263.176-1.984.106-.722.353-1.444.67-2.166a7.785 7.785 0 0 1 1.446-2.057c.6-.65 1.411-1.263 2.398-1.768.987-.505 2.222-.902 3.632-1.227 1.446-.288 3.139-.469 5.114-.469h.987c1.94 0 3.597.144 5.008.397 1.41.253 2.609.613 3.562 1.083.987.433 1.763.938 2.362 1.515.6.578 1.094 1.155 1.411 1.732.353.578.564 1.155.705 1.696.106.542.177 1.047.177 1.444v.325h-7.547c-.035-.109-.106-.361-.247-.686-.141-.325-.423-.686-.846-1.01-.424-.361-1.058-.65-1.869-.902-.812-.253-1.905-.397-3.28-.397-1.305 0-2.398.144-3.209.396-.811.29-1.481.614-1.94 1.047a3.542 3.542 0 0 0-.952 1.48 5.2 5.2 0 0 0-.247 1.623v.325c0 .541.106 1.083.282 1.66.177.578.529 1.083.988 1.588.493.47 1.128.866 1.939 1.19.811.326 1.869.47 3.139.47.952 0 1.728-.072 2.398-.216a10.91 10.91 0 0 0 1.693-.506c.458-.216.811-.433 1.093-.685.282-.253.494-.506.635-.722.141-.253.246-.433.317-.65.071-.18.106-.324.106-.397h7.547v.433c0 .434-.071.903-.177 1.48s-.352 1.155-.705 1.732a9.108 9.108 0 0 1-1.446 1.768c-.599.578-1.411 1.083-2.398 1.552-.987.47-2.151.83-3.562 1.083-1.41.288-3.033.433-4.972.433h-.952v-.108Zm15.975-.361V1.66h7.265v7.686l9.345-7.686h9.028l-11.074 8.84 11.426 10.61h-9.451l-9.274-8.697v8.697h-7.265ZM55.93 43.773l-7.406-19.45H56.6l4.302 12.846 3.809-12.847h8.181l3.844 12.63 4.197-12.63h7.44l-7.405 19.451h-8.393l-3.95-12.27-3.843 12.27H55.93Zm40.555 0h-7.23v-19.45h7.23v19.45Zm8.675.037c-1.234-.217-2.292-.506-3.174-.903-.846-.36-1.551-.794-2.045-1.263-.494-.47-.917-.974-1.2-1.48a5.303 5.303 0 0 1-.563-1.515c-.07-.505-.141-.975-.141-1.371v-.253h7.97c0 .253.07.541.176.866.106.325.317.613.67.902.317.253.811.505 1.41.686.6.18 1.446.288 2.469.288h.247c1.023 0 1.834-.036 2.433-.144a6.977 6.977 0 0 0 1.411-.397c.317-.18.564-.36.635-.577.105-.217.141-.433.141-.686v-.036c0-.253-.036-.47-.141-.65-.106-.216-.283-.397-.6-.54a4.431 4.431 0 0 0-1.34-.362c-.6-.072-1.375-.144-2.398-.18l-3.527-.108c-1.833-.037-3.35-.253-4.549-.578-1.199-.325-2.151-.758-2.856-1.299-.706-.505-1.2-1.119-1.481-1.804a5.634 5.634 0 0 1-.423-2.165v-.253c0-.794.14-1.552.458-2.273.317-.722.882-1.372 1.693-1.913.811-.541 1.939-.974 3.35-1.3 1.41-.324 3.244-.468 5.431-.468h2.257c2.362 0 4.267.18 5.783.505 1.481.36 2.68.794 3.527 1.371.846.578 1.445 1.227 1.763 1.985.317.758.493 1.48.493 2.273v.217h-7.899c0-.18-.07-.397-.176-.614-.106-.252-.282-.469-.6-.685-.317-.217-.776-.397-1.375-.541-.6-.145-1.411-.217-2.433-.217h-.177c-.952 0-1.692.036-2.257.108-.564.072-.987.18-1.269.325-.282.144-.459.289-.564.47-.071.18-.106.36-.106.54v.037c0 .18.035.36.141.54.106.181.282.326.599.47.283.144.706.253 1.235.325.529.072 1.269.144 2.151.144l3.421.072c1.798.036 3.35.217 4.619.433 1.27.253 2.292.614 3.104 1.083.811.469 1.41 1.083 1.763 1.804.352.722.564 1.552.564 2.526v.361c0 .83-.141 1.624-.423 2.418-.282.794-.846 1.516-1.728 2.13-.846.613-2.045 1.118-3.562 1.515-1.516.397-3.562.577-6.065.577h-2.328c-1.763-.072-3.244-.18-4.514-.397Zm41.295-19.488v4.764h-13.859v2.418h13.577v4.763h-13.577v2.634h14.071v4.872h-21.229v-19.45h21.017ZM30.927 0C19.642 0 10.474 9.346 10.474 20.93h20.453V0ZM0 45c11.285 0 20.454-9.346 20.454-20.93H0V45Z"/>
</svg>
