<svg width="18" height="20" viewBox="0 0 18 20" fill="none" xmlns="http://www.w3.org/2000/svg">
<path fill-rule="evenodd" clip-rule="evenodd" d="M6.0185 2.66519C6.18499 1.16592 7.45635 0 9.00003 0C10.5437 0 11.8151 1.16592 11.9816 2.6652C14.3554 3.78439 16 6.19905 16 9V12.1585C16 12.4321 16.1087 12.6945 16.3022 12.888L17.7071 14.2929C17.9931 14.5789 18.0787 15.009 17.9239 15.3827C17.7691 15.7564 17.4045 16 17 16L13 16C13 18.2091 11.2092 20 9.00003 20C6.79089 20 5.00003 18.2091 5.00003 16L1.00003 16C0.595567 16 0.230931 15.7564 0.0761496 15.3827C-0.0786313 15.009 0.00692445 14.5789 0.292923 14.2929L1.69785 12.888C1.89133 12.6945 2.00003 12.4321 2.00003 12.1585V9C2.00003 6.19905 3.64464 3.78439 6.0185 2.66519ZM7.00003 16C7.00003 17.1046 7.89546 18 9.00003 18C10.1046 18 11 17.1046 11 16H7.00003ZM9.00003 2C8.44774 2 8.00003 2.44772 8.00003 3V3.34142C8.00003 3.76523 7.73287 4.14302 7.33328 4.28426C5.38994 4.97113 4.00003 6.82453 4.00003 9V12.1585C4.00003 12.8277 3.77872 13.4742 3.37664 14H14.6234C14.2213 13.4742 14 12.8277 14 12.1585V9C14 6.82453 12.6101 4.97113 10.6668 4.28426C10.2672 4.14302 10 3.76523 10 3.34142V3C10 2.44772 9.55231 2 9.00003 2Z" fill="#545F71"/>
</svg>
