<svg width="20" height="20" viewBox="0 0 20 20" fill="none" xmlns="http://www.w3.org/2000/svg">
<path fill-rule="evenodd" clip-rule="evenodd" d="M0 3C0 1.34315 1.34315 0 3 0H7C8.63373 0 9.96245 1.30592 9.99922 2.93082C11.1742 1.80784 13.0372 1.82396 14.1924 2.97918L17.0208 5.80761C18.176 6.96284 18.1922 8.82581 17.0692 10.0008C18.6941 10.0375 20 11.3663 20 13V17C20 18.6569 18.6569 20 17 20H5C2.23858 20 0 17.7614 0 15V3ZM9.07107 18H17C17.5523 18 18 17.5523 18 17V13C18 12.4477 17.5523 12 17 12H15.0711L9.07107 18ZM13.9493 10.2934C13.9496 10.2931 13.9499 10.2927 13.9502 10.2924L15.6066 8.63604C15.9971 8.24552 15.9971 7.61235 15.6066 7.22183L12.7782 4.3934C12.3876 4.00287 11.7545 4.00287 11.364 4.3934L10 5.75736V14.2426L13.9493 10.2934ZM7.12271 17.1199C7.66479 16.5771 8 15.8277 8 15V3C8 2.44772 7.55228 2 7 2H3C2.44772 2 2 2.44772 2 3V15C2 16.6569 3.34315 18 5 18C5.82843 18 6.57843 17.6642 7.12132 17.1213C7.12178 17.1209 7.12225 17.1204 7.12271 17.1199ZM4 15C4 14.4477 4.44772 14 5 14H5.01C5.56228 14 6.01 14.4477 6.01 15C6.01 15.5523 5.56228 16 5.01 16H5C4.44772 16 4 15.5523 4 15Z" fill="#545F71"/>
</svg>
