<svg width="20" height="20" viewBox="0 0 20 20" fill="none" xmlns="http://www.w3.org/2000/svg">
<path fill-rule="evenodd" clip-rule="evenodd" d="M7.35292 0.292922C7.6362 0.576199 7.72307 1.0012 7.57369 1.37292C7.20396 2.29294 7 3.29854 7 4.35422C7 8.7725 10.5817 12.3542 15 12.3542C16.0557 12.3542 17.0613 12.1503 17.9813 11.7805C18.353 11.6311 18.778 11.718 19.0613 12.0013C19.3446 12.2846 19.4314 12.7096 19.2821 13.0813C17.8051 16.7565 14.2071 19.3542 10 19.3542C4.47715 19.3542 0 14.8771 0 9.35422C0 5.1471 2.59771 1.54912 6.27293 0.0721523C6.64465 -0.0772313 7.06964 0.00964561 7.35292 0.292922ZM5.08558 3.04093C3.20699 4.50546 2 6.78958 2 9.35422C2 13.7725 5.58172 17.3542 10 17.3542C12.5646 17.3542 14.8488 16.1472 16.3133 14.2686C15.8833 14.3251 15.4449 14.3542 15 14.3542C9.47715 14.3542 5 9.87706 5 4.35422C5 3.90931 5.02911 3.47093 5.08558 3.04093Z" fill="#545F71"/>
</svg>
