<svg width="16" height="21" viewBox="0 0 16 21" fill="none" xmlns="http://www.w3.org/2000/svg">
<path fill-rule="evenodd" clip-rule="evenodd" d="M12.18 13.74C12.0982 13.8225 12.0008 13.8881 11.8936 13.9328C11.7863 13.9775 11.6712 14.0005 11.555 14.0005C11.4388 14.0005 11.3237 13.9775 11.2164 13.9328C11.1092 13.8881 11.0118 13.8225 10.93 13.74L8.93 11.74V20C8.93 20.236 8.83623 20.4624 8.66932 20.6293C8.50242 20.7962 8.27604 20.89 8.04 20.89C7.80396 20.89 7.57758 20.7962 7.41068 20.6293C7.24377 20.4624 7.15 20.236 7.15 20V11.7L5.15 13.7C5.06819 13.7825 4.97083 13.8481 4.86356 13.8928C4.75629 13.9375 4.64122 13.9605 4.525 13.9605C4.40878 13.9605 4.29371 13.9375 4.18644 13.8928C4.07917 13.8481 3.98181 13.7825 3.9 13.7C3.81715 13.6173 3.75143 13.5191 3.70658 13.411C3.66173 13.3029 3.63865 13.187 3.63865 13.07C3.63865 12.953 3.66173 12.8371 3.70658 12.729C3.75143 12.6209 3.81715 12.5227 3.9 12.44L7.37 8.93C7.45267 8.84715 7.55087 8.78143 7.65897 8.73658C7.76708 8.69173 7.88296 8.66865 8 8.66865C8.11704 8.66865 8.23292 8.69173 8.34103 8.73658C8.44913 8.78143 8.54733 8.84715 8.63 8.93L12.18 12.48C12.2628 12.5627 12.3286 12.6609 12.3734 12.769C12.4183 12.8771 12.4414 12.993 12.4414 13.11C12.4414 13.227 12.4183 13.3429 12.3734 13.451C12.3286 13.5591 12.2628 13.6573 12.18 13.74Z" fill="#545F71"/>
<path fill-rule="evenodd" clip-rule="evenodd" d="M13 2H11.83C11.6231 1.41484 11.2398 0.908257 10.733 0.550056C10.2261 0.191856 9.62065 -0.00032496 9 4.12473e-07H7C6.37935 -0.00032496 5.77387 0.191856 5.26702 0.550056C4.76016 0.908257 4.37688 1.41484 4.17 2H3C2.20435 2 1.44129 2.31607 0.87868 2.87868C0.31607 3.44129 0 4.20435 0 5V17C0 17.7956 0.31607 18.5587 0.87868 19.1213C1.44129 19.6839 2.20435 20 3 20H4.5V18H3C2.73478 18 2.48043 17.8946 2.29289 17.7071C2.10536 17.5196 2 17.2652 2 17V5C2 4.73478 2.10536 4.48043 2.29289 4.29289C2.48043 4.10536 2.73478 4 3 4H4.17C4.37688 4.58516 4.76016 5.09174 5.26702 5.44994C5.77387 5.80815 6.37935 6.00033 7 6H9C9.62065 6.00033 10.2261 5.80815 10.733 5.44994C11.2398 5.09174 11.6231 4.58516 11.83 4H13C13.2652 4 13.5196 4.10536 13.7071 4.29289C13.8946 4.48043 14 4.73478 14 5V17C14 17.2652 13.8946 17.5196 13.7071 17.7071C13.5196 17.8946 13.2652 18 13 18H11.5V20H13C13.7956 20 14.5587 19.6839 15.1213 19.1213C15.6839 18.5587 16 17.7956 16 17V5C16 4.20435 15.6839 3.44129 15.1213 2.87868C14.5587 2.31607 13.7956 2 13 2ZM9 4H7C6.73478 4 6.48043 3.89464 6.29289 3.70711C6.10536 3.51957 6 3.26522 6 3C6 2.73478 6.10536 2.48043 6.29289 2.29289C6.48043 2.10536 6.73478 2 7 2H9C9.26522 2 9.51957 2.10536 9.70711 2.29289C9.89464 2.48043 10 2.73478 10 3C10 3.26522 9.89464 3.51957 9.70711 3.70711C9.51957 3.89464 9.26522 4 9 4Z" fill="#545F71"/>
</svg>
