<svg width="18" height="18" viewBox="0 0 18 18" fill="none" xmlns="http://www.w3.org/2000/svg">
<path fill-rule="evenodd" clip-rule="evenodd" d="M0 3C0 1.34315 1.34315 0 3 0H15C16.6569 0 18 1.34315 18 3V10.999C18 10.9997 18 11.0003 18 11.001V15C18 16.6569 16.6569 18 15 18H3C1.34315 18 0 16.6569 0 15V13.0002C0 13.0001 0 12.9999 0 12.9998V3ZM2 13.4142V15C2 15.5523 2.44772 16 3 16H15C15.5523 16 16 15.5523 16 15V11.4142L14.7071 10.1213C14.3166 9.7308 13.6834 9.7308 13.2929 10.1213L12.4142 11L13.7071 12.2929C14.0976 12.6834 14.0976 13.3166 13.7071 13.7071C13.3166 14.0976 12.6834 14.0976 12.2929 13.7071L10.2933 11.7075C10.2932 11.7074 10.293 11.7072 10.2929 11.7071C10.2928 11.707 10.2926 11.7068 10.2925 11.7067L7.70711 9.12132C7.31658 8.7308 6.68342 8.7308 6.29289 9.12132L2 13.4142ZM11 9.58579L9.12132 7.70711C7.94975 6.53553 6.05025 6.53553 4.87868 7.70711L2 10.5858V3C2 2.44772 2.44772 2 3 2H15C15.5523 2 16 2.44772 16 3V8.59225C14.8221 7.53687 13.0106 7.57516 11.8787 8.70711L11 9.58579ZM10 5C10 4.44772 10.4477 4 11 4H11.01C11.5623 4 12.01 4.44772 12.01 5C12.01 5.55228 11.5623 6 11.01 6H11C10.4477 6 10 5.55228 10 5Z" fill="#545F71"/>
</svg>
