<svg width="400" height="337" viewBox="0 0 400 337" fill="none" xmlns="http://www.w3.org/2000/svg">
<path d="M1.80847 41.7744H398.814" stroke="#FEFEF4" stroke-width="1.9411" stroke-miterlimit="10"/>
<path d="M390.771 335.346H9.85135C5.49479 335.346 1.80847 331.766 1.80847 327.291V9.55312C1.80847 5.18982 5.38309 1.4978 9.85135 1.4978H390.771C395.127 1.4978 398.814 5.07794 398.814 9.55312V327.291C398.814 331.766 395.127 335.346 390.771 335.346Z" stroke="#FEFEF4" stroke-width="1.9411" stroke-miterlimit="10"/>
<path d="M35.4321 27.6776C38.5168 27.6776 41.0175 25.1731 41.0175 22.0836C41.0175 18.9941 38.5168 16.4896 35.4321 16.4896C32.3474 16.4896 29.8468 18.9941 29.8468 22.0836C29.8468 25.1731 32.3474 27.6776 35.4321 27.6776Z" stroke="#FEFEF4" stroke-width="1.9411" stroke-miterlimit="10"/>
<path d="M57.1033 27.6776C60.188 27.6776 62.6886 25.1731 62.6886 22.0836C62.6886 18.9941 60.188 16.4896 57.1033 16.4896C54.0186 16.4896 51.5179 18.9941 51.5179 22.0836C51.5179 25.1731 54.0186 27.6776 57.1033 27.6776Z" stroke="#FEFEF4" stroke-width="1.9411" stroke-miterlimit="10"/>
<path d="M78.886 27.6776C81.9707 27.6776 84.4713 25.1731 84.4713 22.0836C84.4713 18.9941 81.9707 16.4896 78.886 16.4896C75.8013 16.4896 73.3007 18.9941 73.3007 22.0836C73.3007 25.1731 75.8013 27.6776 78.886 27.6776Z" stroke="#FEFEF4" stroke-width="1.9411" stroke-miterlimit="10"/>
</svg>
