<svg width="20" height="20" viewBox="0 0 20 20" fill="none" xmlns="http://www.w3.org/2000/svg">
<path fill-rule="evenodd" clip-rule="evenodd" d="M10 0C10.5523 0 11 0.447715 11 1V2C11 2.55228 10.5523 3 10 3C9.44771 3 9 2.55228 9 2V1C9 0.447715 9.44771 0 10 0ZM2.92893 2.92893C3.31946 2.53841 3.95262 2.53841 4.34315 2.92893L5.05025 3.63604C5.44078 4.02656 5.44078 4.65973 5.05025 5.05025C4.65973 5.44078 4.02656 5.44078 3.63604 5.05025L2.92893 4.34315C2.53841 3.95262 2.53841 3.31946 2.92893 2.92893ZM17.0711 2.92899C17.4616 3.31951 17.4616 3.95267 17.0711 4.3432L16.364 5.05031C15.9735 5.44083 15.3403 5.44083 14.9498 5.05031C14.5593 4.65978 14.5593 4.02662 14.9498 3.63609L15.6569 2.92899C16.0474 2.53846 16.6806 2.53846 17.0711 2.92899ZM10 7C8.34315 7 7 8.34315 7 10C7 11.6569 8.34315 13 10 13C11.6569 13 13 11.6569 13 10C13 8.34315 11.6569 7 10 7ZM5 10C5 7.23858 7.23858 5 10 5C12.7614 5 15 7.23858 15 10C15 12.7614 12.7614 15 10 15C7.23858 15 5 12.7614 5 10ZM0 10C0 9.44771 0.447715 9 1 9H2C2.55228 9 3 9.44771 3 10C3 10.5523 2.55228 11 2 11H1C0.447715 11 0 10.5523 0 10ZM17 10C17 9.44771 17.4477 9 18 9H19C19.5523 9 20 9.44771 20 10C20 10.5523 19.5523 11 19 11H18C17.4477 11 17 10.5523 17 10ZM14.9497 14.9497C15.3403 14.5592 15.9734 14.5592 16.364 14.9497L17.0711 15.6569C17.4616 16.0474 17.4616 16.6805 17.0711 17.0711C16.6805 17.4616 16.0474 17.4616 15.6569 17.0711L14.9497 16.364C14.5592 15.9734 14.5592 15.3403 14.9497 14.9497ZM3.63609 14.9498C4.02662 14.5593 4.65978 14.5593 5.05031 14.9498C5.44083 15.3403 5.44083 15.9735 5.05031 16.364L4.3432 17.0711C3.95267 17.4616 3.31951 17.4616 2.92898 17.0711C2.53846 16.6806 2.53846 16.0474 2.92899 15.6569L3.63609 14.9498ZM10 17C10.5523 17 11 17.4477 11 18V19C11 19.5523 10.5523 20 10 20C9.44771 20 9 19.5523 9 19V18C9 17.4477 9.44771 17 10 17Z" fill="#545F71"/>
</svg>
