<svg width="218" height="171" viewBox="0 0 218 171" fill="none" xmlns="http://www.w3.org/2000/svg">
<path d="M203.478 170.909H15.0292C6.98631 170.909 0.507324 164.42 0.507324 156.365V15.5087C0.507324 7.45337 6.98631 0.964355 15.0292 0.964355H203.366C211.409 0.964355 217.888 7.45337 217.888 15.5087V156.253C218 164.308 211.521 170.909 203.478 170.909Z" fill="#545F71"/>
<path d="M57.4776 118.326C57.1425 117.99 56.9191 117.543 56.9191 117.095V105.796H31.7851C31.2266 105.796 30.8915 105.684 30.5563 105.236C30.2212 104.9 29.9978 104.453 29.9978 104.005V101.097C29.9978 100.425 30.3329 99.6421 30.8915 98.7471L54.2381 65.8545C54.4616 65.407 54.9084 65.0714 55.3552 64.8476C55.9137 64.6238 56.4723 64.512 57.0308 64.512H62.281C62.8396 64.512 63.2864 64.6239 63.6215 64.9595C63.9566 65.2951 64.0683 65.7426 64.0683 66.302V99.1946H71.1058C71.6644 99.1946 71.9995 99.4184 72.3346 99.754C72.6697 100.09 72.8932 100.537 72.8932 100.985V103.894C72.8932 104.453 72.6697 104.789 72.3346 105.124C71.9995 105.46 71.5527 105.684 71.1058 105.684H64.0683V116.983C64.0683 117.543 63.8449 117.878 63.5098 118.214C63.1747 118.55 62.7279 118.774 62.281 118.774H58.7064C58.1479 118.774 57.8128 118.662 57.4776 118.326ZM38.0407 99.3065H57.0308V72.3435L38.0407 99.3065Z" fill="#FEFEF4"/>
<path d="M85.2925 113.739C82.1648 109.823 80.6009 104.677 80.3775 98.4114L80.2657 91.6986L80.3775 84.7621C80.4892 78.4969 82.1648 73.4623 85.2925 69.5465C88.4203 65.6307 93.3354 63.7288 99.9261 63.7288C106.629 63.7288 111.432 65.6307 114.56 69.5465C117.687 73.4623 119.363 78.4969 119.475 84.7621C119.475 86.2165 119.586 88.566 119.586 91.6986C119.586 94.7194 119.586 96.957 119.475 98.4114C119.251 104.677 117.576 109.823 114.56 113.739C111.432 117.655 106.629 119.557 99.9261 119.557C93.2237 119.557 88.4203 117.655 85.2925 113.739ZM108.974 109.152C110.985 106.467 112.102 102.775 112.102 97.9639C112.102 96.5095 112.214 94.2719 112.214 91.4749C112.214 88.6779 112.214 86.5522 112.102 85.0977C111.99 80.2869 110.873 76.5949 108.863 73.9098C106.852 71.2247 103.836 69.8821 99.9261 69.8821C96.0164 69.8821 93.0003 71.2247 90.9896 73.9098C88.9789 76.5949 87.8618 80.2869 87.8618 85.0977L87.7501 91.4749L87.8618 97.9639C87.9735 102.775 88.9789 106.467 90.9896 109.152C93.0003 111.837 96.0164 113.068 99.9261 113.068C103.948 113.179 106.964 111.837 108.974 109.152Z" fill="#FEFEF4"/>
<path d="M154.327 118.326C153.992 117.99 153.769 117.543 153.769 117.095V105.796H128.635C128.076 105.796 127.741 105.684 127.406 105.236C127.071 104.9 126.847 104.453 126.847 104.005V101.097C126.847 100.425 127.183 99.6421 127.741 98.7471L151.088 65.8545C151.311 65.407 151.758 65.0714 152.205 64.8476C152.763 64.6238 153.322 64.512 153.88 64.512H159.131C159.689 64.512 160.136 64.6239 160.471 64.9595C160.806 65.2951 160.918 65.7426 160.918 66.302V99.1946H167.955C168.514 99.1946 168.849 99.4184 169.184 99.754C169.519 100.09 169.743 100.537 169.743 100.985V103.894C169.743 104.453 169.519 104.789 169.184 105.124C168.849 105.46 168.402 105.684 167.955 105.684H160.918V116.983C160.918 117.543 160.695 117.878 160.359 118.214C160.024 118.55 159.577 118.774 159.131 118.774H155.556C155.109 118.774 154.662 118.662 154.327 118.326ZM135.002 99.3065H153.992V72.3435L135.002 99.3065Z" fill="#FEFEF4"/>
<path d="M22.9603 21.1026C25.243 21.1026 27.0935 19.2492 27.0935 16.963C27.0935 14.6768 25.243 12.8235 22.9603 12.8235C20.6776 12.8235 18.8271 14.6768 18.8271 16.963C18.8271 19.2492 20.6776 21.1026 22.9603 21.1026Z" stroke="#FEFEF4" stroke-width="1.4304" stroke-miterlimit="10"/>
<path d="M39.0461 21.1026C41.3288 21.1026 43.1792 19.2492 43.1792 16.963C43.1792 14.6768 41.3288 12.8235 39.0461 12.8235C36.7634 12.8235 34.913 14.6768 34.913 16.963C34.913 19.2492 36.7634 21.1026 39.0461 21.1026Z" stroke="#FEFEF4" stroke-width="1.4304" stroke-miterlimit="10"/>
<path d="M55.0201 21.1026C57.3028 21.1026 59.1532 19.2492 59.1532 16.963C59.1532 14.6768 57.3028 12.8235 55.0201 12.8235C52.7374 12.8235 50.887 14.6768 50.887 16.963C50.887 19.2492 52.7374 21.1026 55.0201 21.1026Z" stroke="#FEFEF4" stroke-width="1.4304" stroke-miterlimit="10"/>
<path d="M0.507324 34.1926H218" stroke="#FEFEF4" stroke-width="1.4304" stroke-miterlimit="10"/>
</svg>
