<svg width="16" height="20" viewBox="0 0 16 20" fill="none" xmlns="http://www.w3.org/2000/svg">
<path fill-rule="evenodd" clip-rule="evenodd" d="M3.82007 14.8199C3.90189 14.7374 3.99924 14.6719 4.10652 14.6272C4.21379 14.5824 4.32886 14.5594 4.44508 14.5594C4.56129 14.5594 4.67636 14.5824 4.78363 14.6272C4.89091 14.6719 4.98826 14.7374 5.07008 14.8199L7.07008 16.8199V8.55992C7.07008 8.44304 7.0931 8.32731 7.13782 8.21933C7.18255 8.11135 7.24811 8.01324 7.33075 7.9306C7.41339 7.84795 7.51151 7.7824 7.61949 7.73767C7.72747 7.69294 7.8432 7.66992 7.96007 7.66992C8.07695 7.66992 8.19268 7.69294 8.30066 7.73767C8.40864 7.7824 8.50676 7.84795 8.5894 7.9306C8.67204 8.01324 8.7376 8.11135 8.78233 8.21933C8.82705 8.32731 8.85007 8.44304 8.85007 8.55992V16.8499L10.8501 14.8499C10.9322 14.7678 11.0296 14.7027 11.1368 14.6583C11.2441 14.6139 11.359 14.591 11.4751 14.591C11.5911 14.591 11.7061 14.6139 11.8133 14.6583C11.9206 14.7027 12.018 14.7678 12.1001 14.8499C12.1822 14.932 12.2473 15.0294 12.2917 15.1367C12.3361 15.2439 12.359 15.3588 12.359 15.4749C12.359 15.591 12.3361 15.7059 12.2917 15.8132C12.2473 15.9204 12.1822 16.0178 12.1001 16.0999L8.63007 19.6299C8.54741 19.7128 8.44921 19.7785 8.3411 19.8233C8.233 19.8682 8.11711 19.8913 8.00007 19.8913C7.88304 19.8913 7.76715 19.8682 7.65905 19.8233C7.55094 19.7785 7.45274 19.7128 7.37007 19.6299L3.82007 16.0699C3.73753 15.9881 3.67202 15.8908 3.6273 15.7835C3.58259 15.6762 3.55957 15.5611 3.55957 15.4449C3.55957 15.3287 3.58259 15.2136 3.6273 15.1064C3.67202 14.9991 3.73753 14.9017 3.82007 14.8199Z" fill="#545F71"/>
<path fill-rule="evenodd" clip-rule="evenodd" d="M13 2H11.83C11.6231 1.41484 11.2398 0.908257 10.733 0.550056C10.2261 0.191856 9.62065 -0.00032496 9 4.12473e-07H7C6.37935 -0.00032496 5.77387 0.191856 5.26702 0.550056C4.76016 0.908257 4.37688 1.41484 4.17 2H3C2.20435 2 1.44129 2.31607 0.87868 2.87868C0.31607 3.44129 0 4.20435 0 5V17C0 17.7956 0.31607 18.5587 0.87868 19.1213C1.44129 19.6839 2.20435 20 3 20H3.5V18H3C2.73478 18 2.48043 17.8946 2.29289 17.7071C2.10536 17.5196 2 17.2652 2 17V5C2 4.73478 2.10536 4.48043 2.29289 4.29289C2.48043 4.10536 2.73478 4 3 4H4.17C4.37688 4.58516 4.76016 5.09174 5.26702 5.44994C5.77387 5.80815 6.37935 6.00033 7 6H9C9.62065 6.00033 10.2261 5.80815 10.733 5.44994C11.2398 5.09174 11.6231 4.58516 11.83 4H13C13.2652 4 13.5196 4.10536 13.7071 4.29289C13.8946 4.48043 14 4.73478 14 5V17C14 17.2652 13.8946 17.5196 13.7071 17.7071C13.5196 17.8946 13.2652 18 13 18H12.5V20H13C13.7956 20 14.5587 19.6839 15.1213 19.1213C15.6839 18.5587 16 17.7956 16 17V5C16 4.20435 15.6839 3.44129 15.1213 2.87868C14.5587 2.31607 13.7956 2 13 2ZM9 4H7C6.73478 4 6.48043 3.89464 6.29289 3.70711C6.10536 3.51957 6 3.26522 6 3C6 2.73478 6.10536 2.48043 6.29289 2.29289C6.48043 2.10536 6.73478 2 7 2H9C9.26522 2 9.51957 2.10536 9.70711 2.29289C9.89464 2.48043 10 2.73478 10 3C10 3.26522 9.89464 3.51957 9.70711 3.70711C9.51957 3.89464 9.26522 4 9 4Z" fill="#545F71"/>
</svg>
