<svg width="58" height="57" viewBox="0 0 58 57" fill="none" xmlns="http://www.w3.org/2000/svg">
<path d="M21.0103 40.9165C9.72793 40.9165 0.679688 31.7424 0.679688 20.5544C0.679688 9.25462 9.83964 0.192383 21.0103 0.192383C32.2927 0.192383 41.3409 9.3665 41.3409 20.5544C41.4526 31.7424 32.2927 40.9165 21.0103 40.9165ZM21.0103 4.77944C12.2972 4.77944 5.25966 11.8278 5.25966 20.5544C5.25966 29.281 12.2972 36.3295 21.0103 36.3295C29.7234 36.3295 36.7609 29.281 36.7609 20.5544C36.7609 11.8278 29.7234 4.77944 21.0103 4.77944Z" fill="#3378FF"/>
<path d="M35.4142 31.697L32.1757 34.9406L38.1787 40.9529L41.4172 37.7094L35.4142 31.697Z" fill="#3378FF"/>
<path d="M44.5803 36.8889L56.4212 48.7481C57.65 49.9788 57.65 52.1045 56.4212 53.3352L53.7403 56.0203C52.5115 57.2509 50.3891 57.2509 49.1603 56.0203L37.3194 44.161C36.0906 42.9304 36.0906 40.8046 37.3194 39.574L40.0004 36.8889C41.2292 35.5463 43.2399 35.5463 44.5803 36.8889Z" fill="#3378FF"/>
</svg>
