<svg width="225" height="99" viewBox="0 0 225 99" fill="none" xmlns="http://www.w3.org/2000/svg">
<path d="M213.248 98.267H11.6175C5.25021 98.267 0 93.1205 0 86.6315V11.7841C0 5.40701 5.1385 0.148682 11.6175 0.148682H213.36C219.727 0.148682 224.977 5.29513 224.977 11.7841V86.6315C224.865 93.0087 219.615 98.267 213.248 98.267Z" fill="#2B2D42"/>
<path d="M27.2564 18.385C27.2564 20.7344 25.3574 22.6364 23.0116 22.6364C20.6657 22.6364 18.7667 20.7344 18.7667 18.385C18.7667 16.0355 20.6657 14.1335 23.0116 14.1335C25.3574 14.1335 27.2564 16.0355 27.2564 18.385Z" stroke="#FEFEF4" stroke-width="1.4768" stroke-miterlimit="10"/>
<path d="M39.5442 22.6364C41.8885 22.6364 43.789 20.733 43.789 18.385C43.789 16.037 41.8885 14.1335 39.5442 14.1335C37.1998 14.1335 35.2993 16.037 35.2993 18.385C35.2993 20.733 37.1998 22.6364 39.5442 22.6364Z" stroke="#FEFEF4" stroke-width="1.4768" stroke-miterlimit="10"/>
<path d="M56.0768 22.6364C58.4211 22.6364 60.3216 20.733 60.3216 18.385C60.3216 16.037 58.4211 14.1335 56.0768 14.1335C53.7324 14.1335 51.8319 16.037 51.8319 18.385C51.8319 20.733 53.7324 22.6364 56.0768 22.6364Z" stroke="#FEFEF4" stroke-width="1.4768" stroke-miterlimit="10"/>
<path d="M0 34.4956H224.865" stroke="#FEFEF4" stroke-width="1.4768" stroke-miterlimit="10"/>
</svg>
