<svg width="20" height="16" viewBox="0 0 20 16" fill="none" xmlns="http://www.w3.org/2000/svg">
<path fill-rule="evenodd" clip-rule="evenodd" d="M0 2C0 0.89543 0.895431 0 2 0H10C11.1046 0 12 0.89543 12 2H14.5858C15.1162 2 15.6249 2.21071 16 2.58579L15.2929 3.29289L16 2.58579L19.4142 6C19.7893 6.37507 20 6.88378 20 7.41421V12C20 13.1046 19.1046 14 18 14H17.8293C17.4175 15.1652 16.3062 16 15 16C13.6938 16 12.5825 15.1652 12.1707 14H12C11.6357 14 11.2942 13.9026 11 13.7324C10.7058 13.9026 10.3643 14 10 14H7.82929C7.41746 15.1652 6.30622 16 5 16C3.69378 16 2.58254 15.1652 2.17071 14H2C0.89543 14 0 13.1046 0 12V2ZM2.17071 12C2.58254 10.8348 3.69378 10 5 10C6.30622 10 7.41746 10.8348 7.82929 12H10L10 4C10 3.99907 10 3.99814 10 3.99721L10 4M10 3.99721L10 2L2 2V12H2.17071M12 12H12.1707C12.5825 10.8348 13.6938 10 15 10C16.3062 10 17.4175 10.8348 17.8293 12H18L18 7.41421L14.5858 4H12L12 12ZM5 12C4.44772 12 4 12.4477 4 13C4 13.5523 4.44772 14 5 14C5.55228 14 6 13.5523 6 13C6 12.4477 5.55228 12 5 12ZM15 12C14.4477 12 14 12.4477 14 13C14 13.5523 14.4477 14 15 14C15.5523 14 16 13.5523 16 13C16 12.4477 15.5523 12 15 12Z" fill="#545F71"/>
</svg>
