<svg width="392" height="94" viewBox="0 0 392 94" fill="none" xmlns="http://www.w3.org/2000/svg">
<g clip-path="url(#clip0_148_3064)">
<path d="M119.259 44.1732C116.644 43.721 114.402 43.1179 112.534 42.2887C110.74 41.5349 109.246 40.6303 108.2 39.6504C107.154 38.6704 106.257 37.6151 105.659 36.5598C105.061 35.5044 104.688 34.4491 104.464 33.3938C104.314 32.3384 104.165 31.3585 104.165 30.5293V30.0016H121.052C121.052 30.5293 121.202 31.1323 121.426 31.8108C121.65 32.4892 122.098 33.0923 122.846 33.6953C123.518 34.223 124.564 34.7506 125.835 35.1275C127.105 35.5044 128.898 35.7306 131.065 35.7306H131.588C133.755 35.7306 135.474 35.6552 136.744 35.4291C138.015 35.2029 138.986 34.9014 139.733 34.5999C140.406 34.223 140.929 33.8461 141.078 33.3938C141.302 32.9415 141.377 32.4892 141.377 31.9615V31.8862C141.377 31.3585 141.302 30.9062 141.078 30.5293C140.854 30.077 140.48 29.7001 139.808 29.3986C139.135 29.0971 138.239 28.7955 136.968 28.6448C135.698 28.494 134.054 28.3433 131.887 28.2679L124.415 28.0417C120.529 27.9663 117.316 27.5141 114.775 26.8356C112.235 26.1572 110.217 25.2526 108.723 24.1219C107.228 23.0666 106.182 21.7851 105.584 20.3529C104.987 18.9206 104.688 17.413 104.688 15.83V15.3024C104.688 13.644 104.987 12.061 105.659 10.5534C106.332 9.04574 107.527 7.68888 109.246 6.55817C110.965 5.42745 113.356 4.52288 116.345 3.84445C119.334 3.16603 123.219 2.8645 127.852 2.8645H132.634C137.641 2.8645 141.676 3.24141 144.889 3.91983C148.027 4.67364 150.568 5.57821 152.361 6.78431C154.155 7.9904 155.425 9.34726 156.098 10.9303C156.77 12.5133 157.144 14.0209 157.144 15.6793V16.1315H140.406C140.406 15.7546 140.256 15.3024 140.032 14.8501C139.808 14.3224 139.434 13.8701 138.762 13.4178C138.089 12.9655 137.118 12.5886 135.848 12.2871C134.577 11.9856 132.859 11.8348 130.692 11.8348H130.169C128.151 11.8348 126.582 11.9102 125.386 12.061C124.191 12.2117 123.294 12.4379 122.696 12.7394C122.098 13.0409 121.725 13.3425 121.501 13.7194C121.351 14.0963 121.276 14.4732 121.276 14.8501V14.9254C121.276 15.3024 121.351 15.6793 121.575 16.0562C121.8 16.4331 122.173 16.7346 122.846 17.0361C123.443 17.3376 124.34 17.5638 125.461 17.7145C126.582 17.8653 128.151 18.0161 130.019 18.0161L137.267 18.1668C141.078 18.2422 144.366 18.6191 147.056 19.0714C149.746 19.5991 151.913 20.3529 153.632 21.3328C155.35 22.3128 156.621 23.5943 157.368 25.1019C158.115 26.6095 158.564 28.3433 158.564 30.3785V31.1323C158.564 32.8661 158.265 34.5245 157.667 36.1829C157.069 37.8413 155.873 39.3489 154.005 40.6303C152.212 41.9118 149.671 42.9672 146.458 43.7963C143.245 44.6255 138.911 45.0024 133.606 45.0024H128.674C125.087 44.8517 121.874 44.6255 119.259 44.1732Z" fill="#3378FF"/>
<path d="M177.02 14.5485H159.61V3.46753H209.749V14.5485H192.339V44.0978H176.945V14.5485H177.02Z" fill="#3378FF"/>
<path d="M242.852 2.71375C247.186 2.71375 250.922 3.01527 254.06 3.6937C257.199 4.29674 259.889 5.20132 261.981 6.25665C264.148 7.31198 265.867 8.59346 267.212 9.95031C268.557 11.3072 269.603 12.7394 270.275 14.247C271.023 15.7546 271.471 17.2623 271.77 18.6945C271.994 20.2021 272.143 21.559 272.143 22.8404V24.4988C272.143 25.7803 271.994 27.1372 271.77 28.6448C271.546 30.1524 271.023 31.66 270.275 33.1676C269.528 34.6753 268.482 36.1075 267.212 37.5397C265.867 38.972 264.148 40.1781 261.981 41.3088C259.814 42.3641 257.124 43.2687 253.986 43.9471C250.847 44.6255 247.111 44.9271 242.777 44.9271H240.311C235.977 44.9271 232.241 44.6255 229.103 43.9471C225.964 43.2687 223.274 42.4395 221.107 41.3088C218.94 40.2534 217.222 38.972 215.877 37.5397C214.532 36.1075 213.485 34.6753 212.813 33.1676C212.066 31.66 211.617 30.1524 211.318 28.6448C211.094 27.1372 210.945 25.7803 210.945 24.4988V22.8404C210.945 21.559 211.094 20.2021 211.318 18.6945C211.543 17.1869 212.066 15.6793 212.813 14.247C213.56 12.7394 214.606 11.3072 215.951 9.95031C217.296 8.59346 219.015 7.31198 221.182 6.25665C223.349 5.20132 225.964 4.29674 229.103 3.6937C232.241 3.09065 235.977 2.71375 240.386 2.71375H242.852ZM256.302 23.2174C256.302 22.0866 256.078 21.0313 255.704 19.9006C255.256 18.7699 254.509 17.7145 253.463 16.81C252.416 15.9054 250.922 15.0762 248.979 14.4732C247.111 13.8701 244.645 13.5686 241.656 13.5686C238.593 13.5686 236.127 13.8701 234.259 14.4732C232.316 15.0762 230.821 15.83 229.775 16.81C228.729 17.7145 227.982 18.7699 227.608 19.9006C227.235 21.0313 227.01 22.162 227.01 23.2174V23.8958C227.01 24.9511 227.235 26.0818 227.608 27.2879C228.056 28.494 228.804 29.5494 229.85 30.5293C230.896 31.5093 232.39 32.3384 234.333 32.9415C236.201 33.6199 238.667 33.9214 241.656 33.9214C244.645 33.9214 247.036 33.6199 248.979 33.0169C250.922 32.4138 252.416 31.5846 253.463 30.6047C254.509 29.6247 255.331 28.5694 255.704 27.3633C256.153 26.1572 256.302 25.0265 256.302 23.9712V23.2174Z" fill="#3378FF"/>
<path d="M303.154 44.8517C299.044 44.8517 295.457 44.5502 292.468 43.8717C289.479 43.1933 286.864 42.3641 284.772 41.3088C282.679 40.2534 280.961 38.972 279.616 37.5397C278.271 36.1075 277.299 34.6753 276.552 33.1676C275.805 31.66 275.282 30.1524 275.058 28.6448C274.833 27.1372 274.684 25.7049 274.684 24.4988V22.9158C274.684 21.6344 274.833 20.2775 275.058 18.7699C275.282 17.2623 275.805 15.7546 276.477 14.247C277.225 12.7394 278.196 11.3072 279.541 9.95031C280.811 8.59346 282.53 7.31198 284.622 6.25665C286.714 5.20132 289.33 4.37213 292.319 3.6937C295.382 3.09065 298.969 2.71375 303.154 2.71375H305.246C309.356 2.71375 312.868 3.01527 315.857 3.54294C318.846 4.0706 321.386 4.82441 323.404 5.80436C325.496 6.70893 327.14 7.76427 328.41 8.97036C329.681 10.1765 330.727 11.3826 331.399 12.5886C332.146 13.7947 332.595 15.0008 332.894 16.1315C333.118 17.2623 333.267 18.3176 333.267 19.1468V19.8252H317.276C317.202 19.5991 317.052 19.0714 316.753 18.393C316.454 17.7145 315.857 16.9607 314.96 16.2823C314.063 15.5285 312.718 14.9255 311 14.3978C309.281 13.8701 306.965 13.5686 304.05 13.5686C301.286 13.5686 298.969 13.8701 297.25 14.3978C295.532 15.0008 294.112 15.6793 293.141 16.5838C292.169 17.4884 291.497 18.5437 291.123 19.6745C290.75 20.8052 290.6 21.9359 290.6 23.0666V23.745C290.6 24.8757 290.824 26.0064 291.198 27.2125C291.571 28.4186 292.319 29.474 293.29 30.5293C294.336 31.5093 295.681 32.3384 297.4 33.0169C299.119 33.6953 301.36 33.9968 304.05 33.9968C306.068 33.9968 307.712 33.8461 309.132 33.5445C310.551 33.243 311.747 32.8661 312.718 32.4892C313.69 32.0369 314.437 31.5846 315.035 31.057C315.632 30.5293 316.081 30.0016 316.38 29.5494C316.679 29.0217 316.903 28.6448 317.052 28.1925C317.202 27.8156 317.276 27.5141 317.276 27.3633H333.267V28.2679C333.267 29.1724 333.118 30.1524 332.894 31.3585C332.669 32.5646 332.146 33.7707 331.399 34.9768C330.652 36.1829 329.606 37.4643 328.336 38.6704C327.065 39.8765 325.347 40.9319 323.254 41.9118C321.162 42.8918 318.696 43.6456 315.707 44.1732C312.718 44.7763 309.281 45.0778 305.171 45.0778H303.154V44.8517Z" fill="#3378FF"/>
<path d="M337.003 44.0978V3.46753H352.397V19.5237L372.198 3.46753H391.328L367.864 21.9359L392.075 44.0978H372.049L352.397 25.931V44.0978H337.003Z" fill="#3378FF"/>
<path d="M118.512 91.4371L102.82 50.8068H119.931L129.048 77.6424L137.118 50.8068H154.454L162.599 77.1901L171.491 50.8068H187.257L171.565 91.4371H153.781L145.412 65.8076L137.267 91.4371H118.512Z" fill="#3378FF"/>
<path d="M204.444 91.4371H189.125V50.8068H204.444V91.4371Z" fill="#3378FF"/>
<path d="M222.826 91.5125C220.21 91.0602 217.969 90.4571 216.101 89.628C214.307 88.8742 212.813 87.9696 211.767 86.9896C210.721 86.0097 209.824 84.9543 209.226 83.899C208.628 82.8437 208.255 81.7883 208.031 80.733C207.881 79.6777 207.732 78.6977 207.732 77.8685V77.3409H224.619C224.619 77.8685 224.769 78.4716 224.993 79.15C225.217 79.8284 225.665 80.4315 226.413 81.0345C227.085 81.5622 228.131 82.0899 229.401 82.4668C230.672 82.8437 232.465 83.0698 234.632 83.0698H235.155C237.322 83.0698 239.041 82.9944 240.311 82.7683C241.581 82.5422 242.553 82.2406 243.3 81.9391C243.973 81.5622 244.496 81.1853 244.645 80.733C244.869 80.2807 244.944 79.8284 244.944 79.3008V79.2254C244.944 78.6977 244.869 78.2454 244.645 77.8685C244.421 77.4163 244.047 77.0393 243.375 76.7378C242.702 76.4363 241.806 76.1348 240.535 75.984C239.265 75.8333 237.621 75.6825 235.454 75.6071L227.982 75.381C224.096 75.3056 220.883 74.8533 218.342 74.1749C215.802 73.4964 213.784 72.5919 212.29 71.4612C210.795 70.4058 209.749 69.1244 209.151 67.6921C208.554 66.2599 208.255 64.7523 208.255 63.1693V62.6416C208.255 60.9832 208.554 59.4002 209.226 57.8926C209.899 56.385 211.094 55.0281 212.813 53.8974C214.531 52.7667 216.923 51.8621 219.912 51.1837C222.901 50.5053 226.786 50.2037 231.419 50.2037H236.201C241.208 50.2037 245.243 50.5806 248.456 51.2591C251.594 52.0129 254.135 52.9175 255.928 54.1235C257.722 55.3296 258.992 56.6865 259.665 58.2695C260.337 59.8525 260.711 61.3601 260.711 63.0185V63.4708H243.973C243.973 63.0939 243.823 62.6416 243.599 62.1893C243.375 61.6616 243.001 61.2093 242.329 60.7571C241.656 60.3048 240.685 59.9279 239.414 59.6264C238.144 59.3248 236.425 59.1741 234.259 59.1741H233.885C231.867 59.1741 230.298 59.2494 229.103 59.4002C227.907 59.551 227.01 59.7771 226.413 60.0786C225.815 60.3802 225.441 60.6817 225.217 61.0586C225.068 61.4355 224.993 61.8124 224.993 62.1893V62.2647C224.993 62.6416 225.068 63.0185 225.292 63.3954C225.516 63.7723 225.889 64.0738 226.562 64.3754C227.16 64.6769 228.056 64.903 229.177 65.0538C230.298 65.2045 231.867 65.3553 233.735 65.3553L240.984 65.5061C244.795 65.5814 248.082 65.9583 250.772 66.4106C253.462 66.9383 255.629 67.6921 257.348 68.6721C259.067 69.652 260.337 70.9335 261.084 72.4411C261.832 73.9487 262.28 75.6825 262.28 77.7178V78.4716C262.28 80.2053 261.981 81.8637 261.383 83.5221C260.785 85.1805 259.59 86.6881 257.722 87.9696C255.928 89.2511 253.388 90.3064 250.175 91.1356C246.962 91.9648 242.628 92.3417 237.322 92.3417H232.39C228.654 92.1909 225.516 91.9648 222.826 91.5125Z" fill="#3378FF"/>
<path d="M310.327 50.8068V60.757H280.961V65.8076H309.729V75.7578H280.961V81.2607H310.775V91.4371H265.792V50.8068H310.327Z" fill="#3378FF"/>
<path d="M65.5326 0C41.6211 0 22.1929 19.5237 22.1929 43.7209H65.5326V0Z" fill="#3378FF"/>
<path d="M0 94C23.9116 94 43.3397 74.4763 43.3397 50.2791H0V94Z" fill="#3378FF"/>
</g>
<defs>
<clipPath id="clip0_148_3064">
<rect width="392" height="94" fill="white"/>
</clipPath>
</defs>
</svg>
